<svg width="40" height="40" viewBox="0 0 40 40" fill="none" xmlns="http://www.w3.org/2000/svg">
<g clip-path="url(#clip0_1524_2903)">
<path fill-rule="evenodd" clip-rule="evenodd" d="M32.1787 31.4974C31.9687 31.9424 31.6787 32.3324 31.3125 32.6674C30.9487 33.0049 30.5287 33.2662 30.05 33.4599C29.5712 33.6487 29.0537 33.7474 28.495 33.7474H12.165C11.62 33.7474 11.1075 33.6487 10.6262 33.4599C10.1475 33.2662 9.72621 33.0049 9.36371 32.6674C9.00121 32.3324 8.70871 31.9424 8.49621 31.4974C8.28371 31.0524 8.17871 30.5712 8.17871 30.0437V21.5662C8.17871 21.0637 8.28371 20.5862 8.49746 20.1299C8.70871 19.6724 9.00246 19.2774 9.36371 18.9524C9.72746 18.6237 10.15 18.3587 10.63 18.1612C11.1087 17.9612 11.6212 17.8612 12.1662 17.8612H28.4962C29.04 17.8612 29.555 17.9612 30.0425 18.1612C30.5262 18.3587 30.9512 18.6237 31.315 18.9524C31.6825 19.2799 31.9687 19.6749 32.1812 20.1299C32.395 20.5862 32.4975 21.0637 32.4975 21.5662V30.0437C32.4975 30.5712 32.3925 31.0524 32.1787 31.4974ZM16.0737 20.9599H11.5587V22.0562H13.0062V29.5499H14.4025V22.0874H16.0737V20.9599ZM19.4762 23.1837H18.08V27.1674C18.08 27.4562 18.0837 27.6787 18.0925 27.8337C18.1037 27.9912 18.0837 28.0899 18.0325 28.1324C17.99 28.3024 17.8737 28.4299 17.6725 28.5099C17.48 28.5887 17.33 28.4762 17.2262 28.1649C17.2037 28.1212 17.2012 28.0149 17.2112 27.8512C17.2225 27.6824 17.2262 27.4649 17.2262 27.1949L17.1975 23.1837H15.7987L15.8312 27.1337C15.8312 27.4437 15.825 27.7037 15.815 27.9137C15.8037 28.1212 15.8075 28.2812 15.8312 28.3887C15.8512 28.5624 15.8687 28.7449 15.89 28.9449C15.9087 29.1424 16.005 29.3024 16.18 29.4199C16.3425 29.5287 16.5312 29.5837 16.7475 29.5837C16.9687 29.5837 17.1812 29.5437 17.3887 29.4674C17.5975 29.3912 17.7862 29.2887 17.9625 29.1562C18.14 29.0237 18.2725 28.8787 18.35 28.7274L18.3225 29.5162L19.4762 29.5474V23.1837ZM23.9875 24.4249C23.9875 23.7912 23.7775 23.3374 23.3525 23.0712C23.2112 22.9862 23.0462 22.9412 22.8662 22.9412C22.53 22.9412 22.1462 23.1087 21.71 23.4424V20.9599H20.3125V29.4862L21.47 29.4524L21.5575 28.9224C21.9325 29.2562 22.2725 29.4599 22.57 29.5349C22.87 29.6087 23.1212 29.5787 23.3287 29.4449C23.5375 29.3124 23.6987 29.0924 23.815 28.7837C23.93 28.4787 23.9875 28.1249 23.9875 27.7287V24.4249ZM28.395 27.3112H27.3475V27.4724V28.0349C27.3475 28.2062 27.2887 28.3399 27.1737 28.4387C27.0575 28.5349 26.9187 28.5787 26.7575 28.5787H26.54C26.3812 28.5787 26.2462 28.5349 26.14 28.4387C26.0325 28.3399 25.9787 28.2062 25.9787 28.0349V27.9699V27.3412V26.5024H28.395V25.6174C28.395 25.2849 28.3912 24.9637 28.3787 24.6599C28.37 24.3537 28.345 24.1124 28.3062 23.9437C28.2637 23.6512 28.1425 23.4174 27.93 23.2412C27.7237 23.0649 27.4825 22.9424 27.2025 22.8799C26.925 22.8137 26.64 22.8037 26.35 22.8462C26.0637 22.8899 25.8162 22.9899 25.5975 23.1524C25.3275 23.3437 25.1312 23.6112 25.005 23.9437C24.8837 24.2749 24.825 24.7374 24.825 25.3299V27.3124C24.825 28.1487 25.035 28.7474 25.4487 29.0999C25.8325 29.4312 26.2362 29.5987 26.6625 29.5987C26.7025 29.5987 26.7437 29.5987 26.7875 29.5987C27.265 29.5699 27.6837 29.3537 28.0487 28.9549C28.3225 28.6649 28.46 28.2837 28.46 27.8112C28.4437 27.6599 28.4262 27.4924 28.395 27.3112ZM26.1912 24.2062C26.3137 24.0949 26.46 24.0374 26.6325 24.0374H26.695C26.8737 24.0374 27.0287 24.0937 27.1575 24.1999C27.2812 24.3049 27.3475 24.4512 27.3475 24.6362L27.3162 25.4224H25.98L26.0087 24.6362C26.0087 24.4624 26.0712 24.3224 26.1912 24.2062ZM22.7362 28.3399C22.6075 28.4387 22.4662 28.4874 22.3037 28.4874C22.14 28.4874 21.9975 28.4387 21.8687 28.3399C21.7425 28.2449 21.6825 28.1324 21.6825 28.0024V24.2637C21.6825 24.1337 21.7437 24.0212 21.8687 23.9187C21.9975 23.8149 22.14 23.7637 22.3037 23.7637C22.4662 23.7637 22.6075 23.8149 22.7362 23.9187C22.8625 24.0212 22.925 24.1374 22.925 24.2637V28.0024C22.925 28.1324 22.8625 28.2424 22.7362 28.3399ZM25.7462 15.3724C25.575 15.6287 25.4125 15.8287 25.255 15.9674C25.06 16.0974 24.85 16.1612 24.6162 16.1612C24.3387 16.1612 24.1062 16.0974 23.925 15.9674C23.765 15.8537 23.625 15.6787 23.5037 15.4499C23.4625 15.3449 23.4275 15.2337 23.4162 15.1287C23.4025 15.0199 23.385 14.9112 23.3587 14.8099C23.3362 14.6799 23.3237 14.5074 23.3237 14.2862V13.4387V8.13244H24.89V14.2687C24.89 14.4287 24.9425 14.5574 25.05 14.6762C25.165 14.7899 25.3075 14.8487 25.49 14.8487C25.66 14.8487 25.8062 14.7899 25.9262 14.6762C26.05 14.5587 26.1125 14.4287 26.1125 14.2687V8.13244H27.5637V16.0087H25.7125L25.7462 15.3724ZM21.7937 15.4099C21.5762 15.7299 21.3412 15.9437 21.0875 16.0462C20.78 16.2012 20.4375 16.2762 20.0487 16.2762C19.6512 16.2762 19.2812 16.2112 18.9575 16.0824C18.6512 15.9812 18.4275 15.7937 18.2837 15.5249C18.14 15.3162 18.0162 15.0274 17.9175 14.6537C17.8462 14.3037 17.8075 13.7824 17.8075 13.0712V10.9862C17.8075 10.2787 17.8712 9.69119 17.99 9.23244C18.14 8.75494 18.3737 8.41369 18.7012 8.20619C19.0312 7.94994 19.45 7.81994 19.9587 7.81994C20.4075 7.81994 20.78 7.89994 21.0875 8.05119C21.39 8.17994 21.6375 8.40494 21.8312 8.72619C21.9787 8.96244 22.09 9.22244 22.1612 9.52119C22.23 9.83994 22.27 10.2737 22.27 10.8149V12.8412C22.27 13.5762 22.23 14.1012 22.1612 14.4287C22.1312 14.7199 22.0137 15.0512 21.7937 15.4099ZM20.7912 9.94494C20.7912 9.71119 20.7187 9.51869 20.5662 9.35744C20.415 9.19619 20.2387 9.11494 20.0487 9.11494C19.8525 9.11494 19.68 9.19619 19.53 9.35744C19.3775 9.51869 19.3012 9.71119 19.3012 9.94494V14.1337C19.3012 14.3387 19.3737 14.5237 19.5212 14.6849C19.665 14.8437 19.8425 14.9237 20.0462 14.9237C20.2387 14.9237 20.4137 14.8487 20.5662 14.6924C20.7187 14.5399 20.7912 14.3512 20.7912 14.1337V9.94494ZM15.8587 16.2399H14.075V10.1937L11.8362 5.00244H13.785L14.9012 8.88244L16.01 5.00244H17.955L15.8587 10.1937V16.2399Z" fill="#00F0FF"/>
</g>
<defs>
<clipPath id="clip0_1524_2903">
<rect width="25" height="28.75" fill="white" transform="translate(7.5 5)"/>
</clipPath>
</defs>
</svg>
